<svg id='E_Commerce_Shopping_Bag_Browser_24' width='24' height='24' viewBox='0 0 24 24' xmlns='http://www.w3.org/2000/svg' xmlns:xlink='http://www.w3.org/1999/xlink'>
    <rect width='24' height='24' stroke='none' fill='#000000' opacity='0'/>
    <g transform="matrix(0.83 0 0 0.83 12 12)" >
        <g style="" >
            <g transform="matrix(1 0 0 1 -0.5 -6.5)" >
                <path style="stroke: rgb(0,0,0); stroke-width: 1; stroke-dasharray: none; stroke-linecap: round; stroke-dashoffset: 0; stroke-linejoin: round; stroke-miterlimit: 4; fill: none; fill-rule: nonzero; opacity: 1;" transform=" translate(-11.5, -5.5)" d="M 0.5 5.5 L 22.5 5.5" stroke-linecap="round" />
            </g>
            <g transform="matrix(1 0 0 1 -8.13 -9)" >
                <path style="stroke: rgb(0,0,0); stroke-width: 1; stroke-dasharray: none; stroke-linecap: butt; stroke-dashoffset: 0; stroke-linejoin: miter; stroke-miterlimit: 4; fill: none; fill-rule: nonzero; opacity: 1;" transform=" translate(-3.88, -3)" d="M 4 3.25 C 3.86193 3.25 3.75 3.13807 3.75 3 C 3.75 2.86193 3.86193 2.75 4 2.75" stroke-linecap="round" />
            </g>
            <g transform="matrix(1 0 0 1 -7.88 -9)" >
                <path style="stroke: rgb(0,0,0); stroke-width: 1; stroke-dasharray: none; stroke-linecap: butt; stroke-dashoffset: 0; stroke-linejoin: miter; stroke-miterlimit: 4; fill: none; fill-rule: nonzero; opacity: 1;" transform=" translate(-4.13, -3)" d="M 4 3.25 C 4.13807 3.25 4.25 3.13807 4.25 3 C 4.25 2.86193 4.13807 2.75 4 2.75" stroke-linecap="round" />
            </g>
            <g transform="matrix(1 0 0 1 -5.63 -9)" >
                <path style="stroke: rgb(0,0,0); stroke-width: 1; stroke-dasharray: none; stroke-linecap: butt; stroke-dashoffset: 0; stroke-linejoin: miter; stroke-miterlimit: 4; fill: none; fill-rule: nonzero; opacity: 1;" transform=" translate(-6.38, -3)" d="M 6.5 3.25 C 6.36193 3.25 6.25 3.13807 6.25 3 C 6.25 2.86193 6.36193 2.75 6.5 2.75" stroke-linecap="round" />
            </g>
            <g transform="matrix(1 0 0 1 -5.38 -9)" >
                <path style="stroke: rgb(0,0,0); stroke-width: 1; stroke-dasharray: none; stroke-linecap: butt; stroke-dashoffset: 0; stroke-linejoin: miter; stroke-miterlimit: 4; fill: none; fill-rule: nonzero; opacity: 1;" transform=" translate(-6.63, -3)" d="M 6.5 3.25 C 6.63807 3.25 6.75 3.13807 6.75 3 C 6.75 2.86193 6.63807 2.75 6.5 2.75" stroke-linecap="round" />
            </g>
            <g transform="matrix(1 0 0 1 -3.13 -9)" >
                <path style="stroke: rgb(0,0,0); stroke-width: 1; stroke-dasharray: none; stroke-linecap: butt; stroke-dashoffset: 0; stroke-linejoin: miter; stroke-miterlimit: 4; fill: none; fill-rule: nonzero; opacity: 1;" transform=" translate(-8.88, -3)" d="M 9 3.25 C 8.86193 3.25 8.75 3.13807 8.75 3 C 8.75 2.86193 8.86193 2.75 9 2.75" stroke-linecap="round" />
            </g>
            <g transform="matrix(1 0 0 1 -2.88 -9)" >
                <path style="stroke: rgb(0,0,0); stroke-width: 1; stroke-dasharray: none; stroke-linecap: butt; stroke-dashoffset: 0; stroke-linejoin: miter; stroke-miterlimit: 4; fill: none; fill-rule: nonzero; opacity: 1;" transform=" translate(-9.13, -3)" d="M 9 3.25 C 9.13807 3.25 9.25 3.13807 9.25 3 C 9.25 2.86193 9.13807 2.75 9 2.75" stroke-linecap="round" />
            </g>
            <g transform="matrix(1 0 0 1 -0.5 -3)" >
                <path style="stroke: rgb(0,0,0); stroke-width: 1; stroke-dasharray: none; stroke-linecap: round; stroke-dashoffset: 0; stroke-linejoin: round; stroke-miterlimit: 4; fill: none; fill-rule: nonzero; opacity: 1;" transform=" translate(-11.5, -9)" d="M 10.5 17.5 L 3.038 17.5 C 2.36504 17.4995 1.7198 17.2319 1.24395 16.7561 C 0.768095 16.2802 0.50053 15.635 0.5 14.962 L 0.5 3.038 C 0.50053 2.36504 0.768095 1.7198 1.24395 1.24395 C 1.7198 0.768095 2.36504 0.50053 3.038 0.5 L 19.962 0.5 C 20.6351 0.5 21.2807 0.767396 21.7566 1.24336 C 22.2326 1.71933 22.5 2.36488 22.5 3.038 L 22.5 12.5" stroke-linecap="round" />
            </g>
            <g transform="matrix(1 0 0 1 -0.5 -0.5)" >
                <path style="stroke: rgb(0,0,0); stroke-width: 1; stroke-dasharray: none; stroke-linecap: round; stroke-dashoffset: 0; stroke-linejoin: round; stroke-miterlimit: 4; fill: none; fill-rule: nonzero; opacity: 1;" transform=" translate(-11.5, -11.5)" d="M 13.5 9.5 L 10.342 9.5 C 10.1372 9.50185 9.94009 9.57819 9.78747 9.71476 C 9.63485 9.85133 9.53717 10.0388 9.51267 10.2421 C 9.48817 10.4455 9.53853 10.6508 9.65435 10.8197 C 9.77016 10.9886 9.9435 11.1096 10.142 11.16 L 12.866 11.84 C 13.0645 11.8904 13.2378 12.0114 13.3537 12.1803 C 13.4695 12.3492 13.5198 12.5545 13.4953 12.7579 C 13.4708 12.9612 13.3732 13.1487 13.2205 13.2852 C 13.0679 13.4218 12.8708 13.4982 12.666 13.5 L 9.5 13.5" stroke-linecap="round" />
            </g>
            <g transform="matrix(1 0 0 1 -0.5 -3)" >
                <path style="stroke: rgb(0,0,0); stroke-width: 1; stroke-dasharray: none; stroke-linecap: round; stroke-dashoffset: 0; stroke-linejoin: round; stroke-miterlimit: 4; fill: none; fill-rule: nonzero; opacity: 1;" transform=" translate(-11.5, -9)" d="M 11.5 9.5 L 11.5 8.5" stroke-linecap="round" />
            </g>
            <g transform="matrix(1 0 0 1 -0.5 2)" >
                <path style="stroke: rgb(0,0,0); stroke-width: 1; stroke-dasharray: none; stroke-linecap: round; stroke-dashoffset: 0; stroke-linejoin: round; stroke-miterlimit: 4; fill: none; fill-rule: nonzero; opacity: 1;" transform=" translate(-11.5, -14)" d="M 11.5 14.5 L 11.5 13.5" stroke-linecap="round" />
            </g>
            <g transform="matrix(1 0 0 1 6.5 3)" >
                <path style="stroke: rgb(0,0,0); stroke-width: 1; stroke-dasharray: none; stroke-linecap: round; stroke-dashoffset: 0; stroke-linejoin: round; stroke-miterlimit: 4; fill: none; fill-rule: nonzero; opacity: 1;" transform=" translate(-18.5, -15)" d="M 16.5 17.5 L 16.5 14.5 C 16.5 13.9696 16.7107 13.4609 17.0858 13.0858 C 17.4609 12.7107 17.9696 12.5 18.5 12.5 C 19.0304 12.5 19.5391 12.7107 19.9142 13.0858 C 20.2893 13.4609 20.5 13.9696 20.5 14.5 L 20.5 17.5" stroke-linecap="round" />
            </g>
            <g transform="matrix(1 0 0 1 6.5 7.5)" >
                <path style="stroke: rgb(0,0,0); stroke-width: 1; stroke-dasharray: none; stroke-linecap: round; stroke-dashoffset: 0; stroke-linejoin: round; stroke-miterlimit: 4; fill: none; fill-rule: nonzero; opacity: 1;" transform=" translate(-18.5, -19.5)" d="M 22.107 23.5 C 22.4765 23.5 22.8308 23.3532 23.092 23.092 C 23.3532 22.8308 23.5 22.4764 23.5 22.107 C 23.5002 22.036 23.4948 21.9651 23.484 21.895 L 22.652 16.489 C 22.6097 16.2137 22.4703 15.9627 22.259 15.7813 C 22.0477 15.5999 21.7785 15.5001 21.5 15.5 L 15.5 15.5 C 15.2217 15.5001 14.9525 15.5997 14.7413 15.7809 C 14.53 15.9621 14.3905 16.2129 14.348 16.488 L 13.516 21.9 C 13.5052 21.9701 13.4998 22.041 13.5 22.112 C 13.5013 22.4806 13.6487 22.8336 13.9098 23.0938 C 14.1709 23.3539 14.5244 23.5 14.893 23.5 L 22.107 23.5 Z" stroke-linecap="round" />
            </g>
        </g>
    </g>
</svg>