<svg xmlns="http://www.w3.org/2000/svg"  viewBox="0 0 48 48" width="48px" height="48px" fill-rule="evenodd" clip-rule="evenodd" baseProfile="basic">
  <path fill-rule="evenodd" d="M6.998,11.997l0.001-1.999	c0-1.656,1.343-3,3-3h28c1.656,0,3,1.344,3,3v1.999c0,0.552-0.449,1-1,1H7.998C7.445,12.997,6.997,12.549,6.998,11.997z" clip-rule="evenodd"/>
  <path fill-rule="evenodd" d="M8.999,40.993l-0.001-2.001h30.001v2	c0,1.657-1.344,3-3,3h-24C10.342,43.991,8.999,42.649,8.999,40.993z" clip-rule="evenodd"/>
  <path fill="#fff" fill-rule="evenodd" d="M9.999,38.997v-29h28v29	c0,1.104-0.899,1.997-2.003,1.997h-24C10.893,40.994,9.999,40.101,9.999,38.997z" clip-rule="evenodd"/>
  <path fill-rule="evenodd" d="M8.999,38.997v-29	c0-0.551,0.448-1,1-1h28c0.551,0,1,0.449,1,1v29c0,1.66-1.351,2.997-3.003,2.997h-24C10.339,41.994,8.999,40.654,8.999,38.997z M36.999,38.997v-28h-26v28c0,0.552,0.445,0.997,0.997,0.997h24C36.551,39.994,36.999,39.546,36.999,38.997z" clip-rule="evenodd"/>
  <path fill="#fff" fill-rule="evenodd" d="M7.998,9.997	l0.001-1.999c0-1.104,0.896-2,2-2h28c1.104,0,2,0.896,2,2v1.999H7.998z" clip-rule="evenodd"/>
  <path fill-rule="evenodd" d="M6.998,9.997l0.001-1.999	c0-1.656,1.343-3,3-3h28c1.656,0,3,1.344,3,3v1.999c0,0.552-0.449,1-1,1H7.998C7.445,10.997,6.997,10.549,6.998,9.997z M38.999,8.997V7.998c0-0.551-0.449-1-1-1h-28c-0.552,0-1,0.449-1,1.001L8.998,8.997H38.999z" clip-rule="evenodd"/>
  <path fill-rule="evenodd" d="M17.999,4.997c0-2.207,1.792-4,4-4h4	c2.207,0,4,1.793,4,4c0,0.552-0.449,1-1,1c-0.552,0-1-0.448-1-1c0-1.101-0.899-2-2-2h-4c-1.103,0-2,0.899-2,2c0,0.552-0.449,1-1,1	C18.447,5.997,17.999,5.549,17.999,4.997z" clip-rule="evenodd"/>
  <path fill-rule="evenodd" d="M22.998,34.998v-19	c0-0.551,0.448-1,1-1c0.551,0,1,0.449,1,1v19c0,0.552-0.449,1-1,1C23.446,35.998,22.998,35.55,22.998,34.998z" clip-rule="evenodd"/>
  <path fill-rule="evenodd" d="M14.998,34.998v-19	c0-0.551,0.448-1,1-1c0.551,0,1,0.449,1,1v19c0,0.552-0.449,1-1,1C15.446,35.998,14.998,35.55,14.998,34.998z" clip-rule="evenodd"/>
  <path fill-rule="evenodd" d="M30.997,34.998v-19	c0-0.551,0.448-1,1-1c0.551,0,1,0.449,1,1v19c0,0.552-0.449,1-1,1C31.445,35.998,30.997,35.55,30.997,34.998z" clip-rule="evenodd"/>
</svg>