<!DOCTYPE svg PUBLIC "-//W3C//DTD SVG 1.1//EN" "http://www.w3.org/Graphics/SVG/1.1/DTD/svg11.dtd">
<!-- Uploaded to: SVG Repo, www.svgrepo.com, Transformed by: SVG Repo Mixer Tools -->
<svg height="256px" width="256px" version="1.1" id="Layer_1" xmlns="http://www.w3.org/2000/svg" xmlns:xlink="http://www.w3.org/1999/xlink" viewBox="-50.5 -50.5 606.00 606.00" xml:space="preserve" fill="#000000" transform="matrix(-1, 0, 0, 1, 0, 0)rotate(0)" stroke="#000000">
<g id="SVGRepo_bgCarrier" stroke-width="0">
<rect x="-50.5" y="-50.5" width="606.00" height="606.00" rx="0" fill="#7ed0ec" strokewidth="0"/>
</g>
<g id="SVGRepo_tracerCarrier" stroke-linecap="round" stroke-linejoin="round" stroke="#CCCCCC" stroke-width="3.03"/>
<g id="SVGRepo_iconCarrier"> <circle style="fill:#FD8469;" cx="252.5" cy="252.5" r="252.5"/> <g> <polygon style="fill:#FFD05B;" points="86.4,265.6 85.8,265.6 86.1,266.6 "/> </g> <path style="fill:#FFFFFF;" d="M347.9,136.1c-1.2,0-2.2,0.8-2.5,1.9l-16.5,53.7h-32.4H285h-32.4h-11.5h-32.4h-11.5h-32.4h-11.5 h-32.4h-11.4H55.7c-1.8,0-3.1,1.7-2.6,3.5l27.1,90.1l5.6,18.7l13.5,44.9h183.8l14,30.2H114c-3,0-5.5,2.4-5.5,5.5 c0,3,2.4,5.5,5.5,5.5h191.8c1.9,0,3.6-1,4.6-2.5c1-1.6,1.1-3.5,0.3-5.2L293.4,345l60.4-196.9c0.4-0.3,0.7-0.5,1.2-0.9h56.2v-10.9 h-63.3V136.1z M249.2,202.7h32.4l-8.1,25.9h-32.4L249.2,202.7z M270.1,239.5l-8.2,26.1h-32.4l8.2-26.1H270.1z M205.3,202.7h32.4 l-8.1,25.9h-32.4L205.3,202.7z M226.2,239.5l-8.2,26.1h-32.4l8.2-26.1H226.2z M161.4,202.7h32.4l-8.1,25.9h-32.4L161.4,202.7z M182.3,239.5l-8.2,26.1h-32.4l8.2-26.1H182.3z M117.6,202.7H150l-8.1,25.9h-32.4L117.6,202.7z M138.4,239.5l-8.2,26.1H97.8 l8.2-26.1H138.4z M66.8,202.7h39.3L98,228.6H74.6L66.8,202.7z M86.1,266.6l-0.3-1l-7.9-26.1h16.6l-8.2,26.1L86.1,266.6z M107.7,338 h-0.1l-7.3-24.4h15.1L107.7,338z M96.9,302.6l-5.2-17.3l2.8-8.8h32.4l-8.1,26.1L96.9,302.6L96.9,302.6z M151.6,338h-32.4l7.6-24.4 h32.4L151.6,338z M130.2,302.6l8.1-26.1h32.4l-8.1,26.1H130.2z M195.4,338H163l7.6-24.4H203L195.4,338z M174.1,302.6l8.1-26.1h32.4 l-8.1,26.1H174.1z M239.3,338h-32.4l7.6-24.4h32.4L239.3,338z M217.9,302.6l8.1-26.1h32.5l-8.1,26.1H217.9z M284.1,338h-33.3 l7.6-24.4h33.1L284.1,338z M294.9,302.6h-33.1l8.1-26.1h32.9L294.9,302.6z M306.2,265.6h-32.9l8.2-26.1h32.7L306.2,265.6z M317.6,228.6H285l8.1-25.9h32.5L317.6,228.6z"/> <g> <circle style="fill:#4CDBC4;" cx="153.3" cy="384.5" r="28.8"/> <circle style="fill:#4CDBC4;" cx="246.9" cy="384.5" r="28.8"/> </g> <g> <circle style="fill:#324A5E;" cx="246.9" cy="384.5" r="10.8"/> <circle style="fill:#324A5E;" cx="153.3" cy="384.5" r="10.8"/> <path style="fill:#324A5E;" d="M412,133.4h-52.1c-1.3,0-2.3,1.1-2.3,2.3v11.6c0,1.3,1.1,2.3,2.3,2.3H412c1.3,0,2.3-1.1,2.3-2.3 v-11.6C414.4,134.5,413.3,133.4,412,133.4z"/> </g> </g>
</svg>